<?xml version="1.0" encoding="UTF-8" standalone="no"?>
<svg width="1000" height="1000" viewBox="0 0 1000 1000" xmlns="http://www.w3.org/2000/svg">
  <g fill="#ffffff" stroke="none">
    <path d="M 171.56 331.63 L 171.27 325.88 L 175.87 324.08 L 182.76 328.71 L 196.38 305.12 L 203.60 304.60 L 203.74 310.34 L 210.94 310.51 L 210.31 321.14 L 204.16 338.05 L 207.48 344.09 L 203.50 358.07 L 205.90 361.81 L 201.49 381.56 L 194.03 391.93 L 187.17 393.17 L 179.64 406.71 L 168.29 406.72 L 171.27 362.61 L 171.56 331.63 Z " />
    <path d="M 406.30 706.14 L 385.68 697.47 L 377.96 689.27 L 382.34 682.49 L 380.96 673.85 L 370.42 664.49 L 355.47 656.81 L 342.39 651.80 L 339.89 640.37 L 329.92 633.39 L 332.37 644.75 L 324.78 654.09 L 316.10 643.25 L 303.89 639.38 L 298.70 631.51 L 298.92 619.61 L 303.95 607.30 L 293.21 601.79 L 301.92 594.24 L 307.65 589.21 L 332.69 599.56 L 341.42 594.47 L 353.47 597.73 L 359.77 605.77 L 370.99 608.37 L 380.09 600.09 L 389.71 621.33 L 404.40 637.05 L 422.24 653.73 L 407.55 657.23 L 407.77 672.95 L 415.67 678.76 L 409.99 683.39 L 411.47 690.46 L 408.30 698.39 L 406.30 706.14 Z " />
    <path d="M 833.93 257.14 L 838.68 250.48 L 868.35 250.66 L 890.85 260.72 L 900.87 259.74 L 907.77 273.60 L 928.56 272.82 L 927.33 284.47 L 944.24 285.88 L 962.92 300.22 L 948.81 316.12 L 930.73 307.62 L 913.29 309.26 L 900.79 307.40 L 893.94 314.53 L 879.35 316.94 L 873.57 307.46 L 861.00 313.07 L 845.79 339.83 L 836.01 333.61 L 834.08 322.38 L 834.87 311.77 L 825.09 300.03 L 834.35 293.45 L 837.25 278.42 L 833.93 257.14 Z " />
    <path d="M 135.37 490.80 L 115.87 483.99 L 92.17 483.28 L 74.79 475.53 L 54.35 459.40 L 55.28 448.02 L 59.69 438.86 L 54.29 431.55 L 72.58 399.70 L 121.35 399.58 L 122.32 386.27 L 116.17 383.90 L 111.95 375.43 L 97.90 366.41 L 83.75 353.37 L 100.91 353.27 L 100.94 331.27 L 136.42 331.20 L 171.56 331.63 L 171.27 362.61 L 168.29 406.72 L 179.64 406.71 L 192.03 413.78 L 195.30 407.95 L 206.45 412.94 L 189.13 427.85 L 171.12 438.78 L 168.44 446.29 L 171.47 453.96 L 163.57 463.89 L 154.68 466.29 L 156.70 470.89 L 149.57 475.21 L 136.54 485.07 L 135.37 490.80 Z " />
    <path d="M 240.97 520.14 L 234.40 507.91 L 222.86 504.51 L 225.51 488.86 L 220.34 484.63 L 212.52 481.84 L 195.85 486.50 L 194.43 481.24 L 182.96 474.97 L 174.78 467.17 L 163.57 463.89 L 171.47 453.96 L 168.44 446.29 L 171.12 438.78 L 189.13 427.85 L 206.45 412.94 L 210.40 414.47 L 218.73 407.60 L 229.60 407.04 L 233.13 410.22 L 239.03 408.28 L 256.68 411.81 L 274.24 410.79 L 286.47 406.46 L 290.93 402.09 L 303.03 404.11 L 312.13 406.77 L 322.07 405.85 L 329.62 402.46 L 346.97 407.88 L 353.01 408.74 L 364.60 416.05 L 375.59 424.81 L 389.41 430.79 L 399.41 441.54 L 386.38 440.74 L 381.11 446.07 L 367.92 451.17 L 358.32 451.20 L 349.93 456.17 L 342.32 454.40 L 335.84 448.43 L 331.87 449.57 L 326.99 458.91 L 323.35 458.57 L 322.72 466.61 L 309.45 477.37 L 302.45 482.02 L 298.55 486.87 L 287.34 478.97 L 279.14 489.40 L 271.21 489.12 L 262.31 490.04 L 263.11 509.26 L 257.54 509.61 L 252.78 518.53 L 240.97 520.14 Z " />
    <path d="M 301.92 594.24 L 288.78 581.93 L 271.02 566.17 L 262.65 552.99 L 246.63 540.71 L 227.60 523.06 L 231.82 517.02 L 238.09 522.90 L 240.97 520.14 L 252.78 518.53 L 257.54 509.61 L 263.11 509.26 L 262.31 490.04 L 271.21 489.12 L 279.14 489.40 L 287.34 478.97 L 298.55 486.87 L 302.45 482.02 L 309.45 477.37 L 322.72 466.61 L 323.35 458.57 L 326.99 458.91 L 331.87 449.57 L 335.84 448.43 L 342.32 454.40 L 349.93 456.17 L 358.32 451.20 L 367.92 451.17 L 381.11 446.07 L 386.38 440.74 L 399.41 441.54 L 396.14 445.29 L 394.20 454.02 L 398.08 468.32 L 389.33 481.63 L 385.25 497.35 L 384.02 514.57 L 386.06 524.65 L 387.01 542.24 L 381.21 546.08 L 377.65 562.80 L 380.27 573.12 L 372.49 583.11 L 374.26 593.67 L 380.09 600.09 L 370.99 608.37 L 359.77 605.77 L 353.47 597.73 L 341.42 594.47 L 332.69 599.56 L 307.65 589.21 L 301.92 594.24 Z " />
    <path d="M 599.50 745.27 L 586.83 734.00 L 578.69 712.91 L 588.08 702.47 L 578.45 699.79 L 571.36 686.87 L 552.43 676.01 L 535.80 678.50 L 528.10 692.10 L 512.75 701.91 L 504.46 703.28 L 500.73 711.41 L 518.86 732.62 L 508.49 737.61 L 503.00 743.41 L 485.32 745.40 L 478.74 722.05 L 473.79 728.70 L 461.26 726.40 L 453.59 710.68 L 438.01 708.08 L 428.14 703.51 L 411.84 703.57 L 410.66 712.05 L 406.30 706.14 L 408.30 698.39 L 411.47 690.46 L 409.99 683.39 L 415.67 678.76 L 407.77 672.95 L 407.55 657.23 L 422.24 653.73 L 435.89 667.75 L 435.11 676.03 L 450.27 677.79 L 453.86 674.61 L 464.31 684.21 L 483.00 681.39 L 499.17 671.52 L 522.25 663.64 L 535.21 651.96 L 556.19 654.25 L 554.78 658.09 L 575.97 659.43 L 592.87 666.18 L 605.28 677.94 L 619.57 688.74 L 614.96 694.45 L 623.78 717.47 L 616.62 729.08 L 604.37 726.28 L 599.50 745.27 Z " />
    <path d="M 222.86 504.51 L 218.64 513.72 L 196.63 513.13 L 182.96 509.39 L 167.24 501.62 L 146.13 499.19 L 135.37 490.80 L 136.54 485.07 L 149.57 475.21 L 156.70 470.89 L 154.68 466.29 L 163.57 463.89 L 174.78 467.17 L 182.96 474.97 L 194.43 481.24 L 195.85 486.50 L 212.52 481.84 L 220.34 484.63 L 225.51 488.86 L 222.86 504.51 Z " />
  </g>
</svg>